<svg width="625" height="476" viewBox="0 0 625 476" fill="none" xmlns="http://www.w3.org/2000/svg">
<rect width="625" height="476" fill="white"/>
<rect width="625" height="476" fill="#333333"/>
<path d="M625 0L0 476H625V0Z" fill="white" fill-opacity="0.05"/>
<path d="M187.448 188.95C187.448 188.65 187.598 188.5 187.898 188.5H190.193C190.493 188.5 190.643 188.65 190.643 188.95V219.55C190.643 219.85 190.493 220 190.193 220H187.943C187.733 220 187.553 219.895 187.403 219.685L172.058 194.71C172.028 194.62 171.983 194.59 171.923 194.62C171.863 194.62 171.833 194.665 171.833 194.755L171.878 219.55C171.878 219.85 171.728 220 171.428 220H169.133C168.833 220 168.683 219.85 168.683 219.55V188.95C168.683 188.65 168.833 188.5 169.133 188.5H171.383C171.593 188.5 171.773 188.605 171.923 188.815L187.268 213.79C187.298 213.88 187.343 213.925 187.403 213.925C187.463 213.895 187.493 213.835 187.493 213.745L187.448 188.95ZM221.113 190.84C221.113 191.14 220.963 191.29 220.663 191.29H204.103C203.983 191.29 203.923 191.35 203.923 191.47V202.585C203.923 202.705 203.983 202.765 204.103 202.765H215.713C216.013 202.765 216.163 202.915 216.163 203.215V205.105C216.163 205.405 216.013 205.555 215.713 205.555H204.103C203.983 205.555 203.923 205.615 203.923 205.735V217.03C203.923 217.15 203.983 217.21 204.103 217.21H220.663C220.963 217.21 221.113 217.36 221.113 217.66V219.55C221.113 219.85 220.963 220 220.663 220H201.178C200.878 220 200.728 219.85 200.728 219.55V188.95C200.728 188.65 200.878 188.5 201.178 188.5H220.663C220.963 188.5 221.113 188.65 221.113 188.95V190.84ZM237.004 220C236.764 220 236.599 219.88 236.509 219.64L227.869 188.995L227.824 188.86C227.824 188.62 227.974 188.5 228.274 188.5H230.659C230.929 188.5 231.094 188.62 231.154 188.86L237.994 213.52C238.024 213.58 238.054 213.61 238.084 213.61C238.144 213.61 238.189 213.58 238.219 213.52L244.564 188.905C244.624 188.635 244.789 188.5 245.059 188.5H247.489C247.759 188.5 247.924 188.635 247.984 188.905L254.599 213.52C254.629 213.58 254.659 213.61 254.689 213.61C254.749 213.61 254.794 213.58 254.824 213.52L261.664 188.86C261.724 188.62 261.889 188.5 262.159 188.5H264.454C264.604 188.5 264.709 188.545 264.769 188.635C264.859 188.725 264.889 188.845 264.859 188.995L256.354 219.64C256.294 219.88 256.129 220 255.859 220H253.474C253.204 220 253.039 219.865 252.979 219.595L246.409 194.395C246.379 194.335 246.334 194.305 246.274 194.305C246.244 194.305 246.214 194.335 246.184 194.395L239.749 219.595C239.719 219.865 239.554 220 239.254 220H237.004ZM281.29 220.36C277.9 220.36 275.215 219.595 273.235 218.065C271.285 216.535 270.31 214.495 270.31 211.945V210.55C270.31 210.25 270.46 210.1 270.76 210.1H272.965C273.265 210.1 273.415 210.25 273.415 210.55V211.765C273.415 213.505 274.135 214.915 275.575 215.995C277.015 217.045 279.01 217.57 281.56 217.57C283.87 217.57 285.625 217.09 286.825 216.13C288.025 215.14 288.625 213.835 288.625 212.215C288.625 211.165 288.34 210.265 287.77 209.515C287.23 208.765 286.375 208.06 285.205 207.4C284.065 206.74 282.445 205.975 280.345 205.105C278.095 204.205 276.34 203.425 275.08 202.765C273.85 202.075 272.845 201.205 272.065 200.155C271.315 199.075 270.94 197.725 270.94 196.105C270.94 193.585 271.81 191.635 273.55 190.255C275.32 188.845 277.735 188.14 280.795 188.14C284.125 188.14 286.75 188.92 288.67 190.48C290.59 192.04 291.55 194.11 291.55 196.69V197.68C291.55 197.98 291.4 198.13 291.1 198.13H288.85C288.55 198.13 288.4 197.98 288.4 197.68V196.87C288.4 195.13 287.71 193.705 286.33 192.595C284.98 191.485 283.09 190.93 280.66 190.93C278.53 190.93 276.895 191.365 275.755 192.235C274.615 193.105 274.045 194.365 274.045 196.015C274.045 197.095 274.315 197.995 274.855 198.715C275.425 199.405 276.22 200.02 277.24 200.56C278.29 201.07 279.895 201.745 282.055 202.585C284.245 203.485 286 204.325 287.32 205.105C288.67 205.885 289.75 206.845 290.56 207.985C291.4 209.095 291.82 210.46 291.82 212.08C291.82 214.6 290.89 216.61 289.03 218.11C287.17 219.61 284.59 220.36 281.29 220.36ZM310.27 220.36C307.81 220.36 305.635 219.88 303.745 218.92C301.885 217.96 300.43 216.61 299.38 214.87C298.36 213.1 297.85 211.06 297.85 208.75V199.66C297.85 197.38 298.36 195.37 299.38 193.63C300.43 191.89 301.885 190.54 303.745 189.58C305.635 188.62 307.81 188.14 310.27 188.14C312.73 188.14 314.89 188.59 316.75 189.49C318.64 190.39 320.095 191.665 321.115 193.315C322.165 194.935 322.69 196.825 322.69 198.985C322.69 199.255 322.465 199.42 322.015 199.48L314.905 199.93H314.77C314.41 199.93 314.23 199.765 314.23 199.435C314.23 198.205 313.87 197.23 313.15 196.51C312.43 195.76 311.47 195.385 310.27 195.385C309.07 195.385 308.11 195.76 307.39 196.51C306.67 197.23 306.31 198.205 306.31 199.435V209.11C306.31 210.31 306.67 211.285 307.39 212.035C308.11 212.755 309.07 213.115 310.27 213.115C311.47 213.115 312.43 212.755 313.15 212.035C313.87 211.285 314.23 210.31 314.23 209.11C314.23 208.93 314.29 208.795 314.41 208.705C314.53 208.615 314.695 208.585 314.905 208.615L322.015 208.975C322.465 209.005 322.69 209.155 322.69 209.425C322.69 211.585 322.165 213.49 321.115 215.14C320.095 216.79 318.64 218.08 316.75 219.01C314.89 219.91 312.73 220.36 310.27 220.36ZM343.856 189.175C343.856 188.965 343.916 188.8 344.036 188.68C344.156 188.56 344.321 188.5 344.531 188.5H351.641C351.851 188.5 352.016 188.56 352.136 188.68C352.256 188.8 352.316 188.965 352.316 189.175V219.325C352.316 219.535 352.256 219.7 352.136 219.82C352.016 219.94 351.851 220 351.641 220H344.531C344.321 220 344.156 219.94 344.036 219.82C343.916 219.7 343.856 219.535 343.856 219.325V207.895C343.856 207.745 343.781 207.67 343.631 207.67H336.611C336.461 207.67 336.386 207.745 336.386 207.895V219.325C336.386 219.535 336.326 219.7 336.206 219.82C336.086 219.94 335.921 220 335.711 220H328.601C328.391 220 328.226 219.94 328.106 219.82C327.986 219.7 327.926 219.535 327.926 219.325V189.175C327.926 188.965 327.986 188.8 328.106 188.68C328.226 188.56 328.391 188.5 328.601 188.5H335.711C335.921 188.5 336.086 188.56 336.206 188.68C336.326 188.8 336.386 188.965 336.386 189.175V200.2C336.386 200.35 336.461 200.425 336.611 200.425H343.631C343.781 200.425 343.856 200.35 343.856 200.2V189.175ZM369.836 220.36C367.406 220.36 365.246 219.895 363.356 218.965C361.496 218.035 360.056 216.715 359.036 215.005C358.016 213.295 357.506 211.315 357.506 209.065V189.175C357.506 188.965 357.566 188.8 357.686 188.68C357.806 188.56 357.971 188.5 358.181 188.5H365.291C365.501 188.5 365.666 188.56 365.786 188.68C365.906 188.8 365.966 188.965 365.966 189.175V209.065C365.966 210.295 366.311 211.285 367.001 212.035C367.721 212.755 368.666 213.115 369.836 213.115C370.976 213.115 371.891 212.74 372.581 211.99C373.301 211.24 373.661 210.265 373.661 209.065V189.175C373.661 188.965 373.721 188.8 373.841 188.68C373.961 188.56 374.126 188.5 374.336 188.5H381.446C381.656 188.5 381.821 188.56 381.941 188.68C382.061 188.8 382.121 188.965 382.121 189.175V209.065C382.121 211.315 381.611 213.295 380.591 215.005C379.571 216.715 378.131 218.035 376.271 218.965C374.411 219.895 372.266 220.36 369.836 220.36ZM405.35 189.175C405.35 188.965 405.41 188.8 405.53 188.68C405.65 188.56 405.815 188.5 406.025 188.5H413.135C413.345 188.5 413.51 188.56 413.63 188.68C413.75 188.8 413.81 188.965 413.81 189.175V219.325C413.81 219.535 413.75 219.7 413.63 219.82C413.51 219.94 413.345 220 413.135 220H406.34C405.98 220 405.71 219.85 405.53 219.55L396.35 204.25C396.29 204.16 396.23 204.13 396.17 204.16C396.11 204.16 396.08 204.22 396.08 204.34L396.17 219.325C396.17 219.535 396.11 219.7 395.99 219.82C395.87 219.94 395.705 220 395.495 220H388.385C388.175 220 388.01 219.94 387.89 219.82C387.77 219.7 387.71 219.535 387.71 219.325V189.175C387.71 188.965 387.77 188.8 387.89 188.68C388.01 188.56 388.175 188.5 388.385 188.5H395.18C395.54 188.5 395.81 188.65 395.99 188.95L405.125 204.25C405.185 204.34 405.245 204.385 405.305 204.385C405.365 204.355 405.395 204.28 405.395 204.16L405.35 189.175ZM420.254 220C420.044 220 419.879 219.94 419.759 219.82C419.639 219.7 419.579 219.535 419.579 219.325V189.175C419.579 188.965 419.639 188.8 419.759 188.68C419.879 188.56 420.044 188.5 420.254 188.5H427.364C427.574 188.5 427.739 188.56 427.859 188.68C427.979 188.8 428.039 188.965 428.039 189.175V199.93C428.039 200.02 428.069 200.08 428.129 200.11C428.189 200.14 428.249 200.11 428.309 200.02L436.139 188.905C436.319 188.635 436.604 188.5 436.994 188.5H445.049C445.409 188.5 445.589 188.635 445.589 188.905C445.589 189.025 445.544 189.16 445.454 189.31L436.094 202.315C436.034 202.405 436.034 202.51 436.094 202.63L445.769 219.19C445.859 219.31 445.904 219.445 445.904 219.595C445.904 219.865 445.709 220 445.319 220H437.354C436.964 220 436.694 219.85 436.544 219.55L430.334 208.48C430.304 208.39 430.259 208.345 430.199 208.345C430.139 208.345 430.079 208.39 430.019 208.48L428.129 211.36C428.069 211.48 428.039 211.57 428.039 211.63V219.325C428.039 219.535 427.979 219.7 427.859 219.82C427.739 219.94 427.574 220 427.364 220H420.254ZM454.307 220.36C453.077 220.36 452.057 219.97 451.247 219.19C450.467 218.38 450.077 217.36 450.077 216.13C450.077 214.87 450.467 213.85 451.247 213.07C452.057 212.29 453.077 211.9 454.307 211.9C455.537 211.9 456.542 212.29 457.322 213.07C458.132 213.85 458.537 214.87 458.537 216.13C458.537 217.33 458.132 218.335 457.322 219.145C456.512 219.955 455.507 220.36 454.307 220.36Z" fill="white"/>
<path d="M91.8219 266.734V269.719H89.8219V295.141H91.8219V298.109H86.1812V266.734H91.8219ZM112.506 282.75H107.866L107.85 279.844H111.959C112.595 279.844 113.136 279.719 113.584 279.469C114.032 279.219 114.371 278.854 114.6 278.375C114.84 277.896 114.959 277.318 114.959 276.641C114.959 275.891 114.855 275.281 114.647 274.812C114.439 274.333 114.11 273.984 113.662 273.766C113.225 273.547 112.662 273.438 111.975 273.438H108.991V293H105.194V270.25H111.975C113.037 270.25 113.985 270.375 114.819 270.625C115.662 270.865 116.376 271.234 116.959 271.734C117.543 272.234 117.985 272.875 118.287 273.656C118.6 274.427 118.756 275.344 118.756 276.406C118.756 277.333 118.558 278.188 118.162 278.969C117.767 279.74 117.178 280.375 116.397 280.875C115.626 281.365 114.668 281.656 113.522 281.75L112.506 282.75ZM112.366 293H106.616L108.366 289.828H112.366C113.043 289.828 113.6 289.682 114.037 289.391C114.475 289.099 114.803 288.693 115.022 288.172C115.241 287.651 115.35 287.042 115.35 286.344C115.35 285.615 115.256 284.979 115.069 284.438C114.881 283.896 114.579 283.479 114.162 283.188C113.746 282.896 113.194 282.75 112.506 282.75H108.678L108.709 279.844H113.6L114.475 280.953C115.569 280.974 116.459 281.245 117.147 281.766C117.834 282.276 118.34 282.938 118.662 283.75C118.985 284.562 119.147 285.432 119.147 286.359C119.147 287.807 118.876 289.026 118.334 290.016C117.793 290.995 117.017 291.74 116.006 292.25C115.006 292.75 113.793 293 112.366 293ZM134.981 270.25H138.778V286.047C138.778 287.786 138.45 289.188 137.794 290.25C137.148 291.312 136.273 292.089 135.169 292.578C134.075 293.068 132.856 293.312 131.512 293.312C130.117 293.312 128.872 293.068 127.778 292.578C126.684 292.089 125.825 291.312 125.2 290.25C124.575 289.188 124.262 287.786 124.262 286.047V270.25H128.044V286.047C128.044 287.13 128.179 287.969 128.45 288.562C128.731 289.156 129.127 289.568 129.637 289.797C130.158 290.026 130.783 290.141 131.512 290.141C132.242 290.141 132.861 290.026 133.372 289.797C133.893 289.568 134.289 289.156 134.559 288.562C134.841 287.969 134.981 287.13 134.981 286.047V270.25ZM145.597 270.25H149.05L154.284 287.172L159.503 270.25H162.706L155.706 293H152.847L145.597 270.25ZM144.3 270.25H147.487L148.003 284.734V293H144.3V270.25ZM161.05 270.25H164.253V293H160.55V284.734L161.05 270.25ZM171.416 270.25H174.869L180.103 287.172L185.322 270.25H188.525L181.525 293H178.666L171.416 270.25ZM170.119 270.25H173.306L173.822 284.734V293H170.119V270.25ZM186.869 270.25H190.072V293H186.369V284.734L186.869 270.25ZM208.609 289.828V293H198.734V289.828H208.609ZM199.734 270.25V293H195.937V270.25H199.734ZM207.281 279.719V282.844H198.734V279.719H207.281ZM208.516 270.25V273.438H198.734V270.25H208.516ZM213.366 270.25H220.241C221.741 270.25 223.011 270.51 224.053 271.031C225.095 271.552 225.886 272.323 226.428 273.344C226.98 274.354 227.256 275.609 227.256 277.109C227.256 278.245 227.084 279.245 226.741 280.109C226.407 280.974 225.923 281.703 225.287 282.297C224.652 282.88 223.886 283.333 222.991 283.656L221.881 284.266H216.069L216.053 281.078H220.147C220.886 281.078 221.501 280.917 221.991 280.594C222.48 280.271 222.845 279.823 223.084 279.25C223.334 278.677 223.459 278.026 223.459 277.297C223.459 276.516 223.35 275.839 223.131 275.266C222.912 274.682 222.569 274.234 222.1 273.922C221.631 273.599 221.011 273.438 220.241 273.438H217.162V293H213.366V270.25ZM223.959 293L219.631 282.781L223.584 282.766L228.022 292.797V293H223.959ZM232.309 291.094C232.309 290.49 232.502 289.984 232.887 289.578C233.283 289.172 233.825 288.969 234.512 288.969C235.2 288.969 235.736 289.172 236.122 289.578C236.518 289.984 236.716 290.49 236.716 291.094C236.716 291.677 236.518 292.172 236.122 292.578C235.736 292.984 235.2 293.188 234.512 293.188C233.825 293.188 233.283 292.984 232.887 292.578C232.502 292.172 232.309 291.677 232.309 291.094ZM242.816 291.094C242.816 290.49 243.008 289.984 243.394 289.578C243.79 289.172 244.331 288.969 245.019 288.969C245.706 288.969 246.243 289.172 246.628 289.578C247.024 289.984 247.222 290.49 247.222 291.094C247.222 291.677 247.024 292.172 246.628 292.578C246.243 292.984 245.706 293.188 245.019 293.188C244.331 293.188 243.79 292.984 243.394 292.578C243.008 292.172 242.816 291.677 242.816 291.094ZM253.322 291.094C253.322 290.49 253.515 289.984 253.9 289.578C254.296 289.172 254.837 288.969 255.525 288.969C256.212 288.969 256.749 289.172 257.134 289.578C257.53 289.984 257.728 290.49 257.728 291.094C257.728 291.677 257.53 292.172 257.134 292.578C256.749 292.984 256.212 293.188 255.525 293.188C254.837 293.188 254.296 292.984 253.9 292.578C253.515 292.172 253.322 291.677 253.322 291.094ZM288.241 270.25V293H284.522L276.491 277.25V293H272.819V270.25H276.491L284.584 286.109V270.25H288.241ZM309.575 279.766V283.641C309.575 285.245 309.387 286.651 309.012 287.859C308.648 289.068 308.117 290.078 307.419 290.891C306.731 291.693 305.898 292.297 304.919 292.703C303.95 293.109 302.867 293.312 301.669 293.312C300.481 293.312 299.398 293.109 298.419 292.703C297.45 292.297 296.611 291.693 295.903 290.891C295.205 290.078 294.664 289.068 294.278 287.859C293.903 286.651 293.716 285.245 293.716 283.641V279.766C293.716 278.141 293.903 276.719 294.278 275.5C294.653 274.271 295.19 273.245 295.887 272.422C296.596 271.599 297.434 270.979 298.403 270.562C299.382 270.146 300.46 269.938 301.637 269.938C302.835 269.938 303.919 270.146 304.887 270.562C305.867 270.979 306.705 271.599 307.403 272.422C308.101 273.245 308.637 274.271 309.012 275.5C309.387 276.719 309.575 278.141 309.575 279.766ZM305.809 283.641V279.734C305.809 278.578 305.716 277.589 305.528 276.766C305.351 275.932 305.085 275.255 304.731 274.734C304.377 274.203 303.94 273.812 303.419 273.562C302.908 273.302 302.315 273.172 301.637 273.172C300.981 273.172 300.393 273.302 299.872 273.562C299.361 273.812 298.924 274.203 298.559 274.734C298.205 275.255 297.934 275.932 297.747 276.766C297.57 277.589 297.481 278.578 297.481 279.734V283.641C297.481 284.776 297.575 285.755 297.762 286.578C297.95 287.391 298.221 288.057 298.575 288.578C298.94 289.089 299.382 289.469 299.903 289.719C300.424 289.969 301.012 290.094 301.669 290.094C302.335 290.094 302.929 289.969 303.45 289.719C303.971 289.469 304.403 289.089 304.747 288.578C305.101 288.057 305.367 287.391 305.544 286.578C305.721 285.755 305.809 284.776 305.809 283.641ZM327.947 270.25V293H324.15V270.25H327.947ZM335.234 270.25H338.688L343.922 287.172L349.141 270.25H352.344L345.344 293H342.484L335.234 270.25ZM333.938 270.25H337.125L337.641 284.734V293H333.938V270.25ZM350.688 270.25H353.891V293H350.188V284.734L350.688 270.25ZM367.881 273.375L362.381 293H358.413L365.631 270.25H368.1L367.881 273.375ZM372.272 293L366.756 273.375L366.491 270.25H369.006L376.256 293H372.272ZM372.366 284.547V287.734H361.772V284.547H372.366ZM395.091 281.328V290.297C394.809 290.641 394.382 291.052 393.809 291.531C393.247 292 392.486 292.417 391.528 292.781C390.58 293.135 389.382 293.312 387.934 293.312C386.716 293.312 385.601 293.115 384.591 292.719C383.591 292.323 382.731 291.724 382.012 290.922C381.294 290.12 380.742 289.12 380.356 287.922C379.971 286.714 379.778 285.286 379.778 283.641V279.594C379.778 277.969 379.95 276.552 380.294 275.344C380.648 274.135 381.164 273.13 381.841 272.328C382.518 271.516 383.341 270.917 384.309 270.531C385.278 270.135 386.393 269.938 387.653 269.938C389.247 269.938 390.575 270.219 391.637 270.781C392.71 271.333 393.528 272.156 394.091 273.25C394.664 274.333 394.997 275.656 395.091 277.219H391.387C391.304 276.26 391.122 275.484 390.841 274.891C390.57 274.286 390.179 273.839 389.669 273.547C389.158 273.255 388.502 273.109 387.7 273.109C386.971 273.109 386.346 273.234 385.825 273.484C385.304 273.734 384.877 274.125 384.544 274.656C384.21 275.177 383.966 275.844 383.809 276.656C383.653 277.469 383.575 278.438 383.575 279.562V283.641C383.575 284.786 383.674 285.771 383.872 286.594C384.07 287.417 384.356 288.094 384.731 288.625C385.117 289.146 385.591 289.531 386.153 289.781C386.716 290.021 387.356 290.141 388.075 290.141C388.783 290.141 389.346 290.068 389.762 289.922C390.179 289.776 390.502 289.615 390.731 289.438C390.971 289.25 391.164 289.104 391.309 289V284.312H387.637V281.328H395.091ZM413.284 289.828V293H403.409V289.828H413.284ZM404.409 270.25V293H400.612V270.25H404.409ZM411.956 279.719V282.844H403.409V279.719H411.956ZM413.191 270.25V273.438H403.409V270.25H413.191ZM430.797 270.25V293H427V270.25H430.797ZM438.172 280.172V283.359H429.922V280.172H438.172ZM439.234 270.25V273.438H429.922V270.25H439.234ZM459.35 279.766V283.641C459.35 285.245 459.163 286.651 458.788 287.859C458.423 289.068 457.892 290.078 457.194 290.891C456.506 291.693 455.673 292.297 454.694 292.703C453.725 293.109 452.642 293.312 451.444 293.312C450.256 293.312 449.173 293.109 448.194 292.703C447.225 292.297 446.386 291.693 445.678 290.891C444.98 290.078 444.439 289.068 444.053 287.859C443.678 286.651 443.491 285.245 443.491 283.641V279.766C443.491 278.141 443.678 276.719 444.053 275.5C444.428 274.271 444.965 273.245 445.663 272.422C446.371 271.599 447.209 270.979 448.178 270.562C449.157 270.146 450.235 269.938 451.413 269.938C452.61 269.938 453.694 270.146 454.663 270.562C455.642 270.979 456.48 271.599 457.178 272.422C457.876 273.245 458.413 274.271 458.788 275.5C459.163 276.719 459.35 278.141 459.35 279.766ZM455.584 283.641V279.734C455.584 278.578 455.491 277.589 455.303 276.766C455.126 275.932 454.86 275.255 454.506 274.734C454.152 274.203 453.715 273.812 453.194 273.562C452.683 273.302 452.09 273.172 451.413 273.172C450.756 273.172 450.168 273.302 449.647 273.562C449.136 273.812 448.699 274.203 448.334 274.734C447.98 275.255 447.709 275.932 447.522 276.766C447.345 277.589 447.256 278.578 447.256 279.734V283.641C447.256 284.776 447.35 285.755 447.538 286.578C447.725 287.391 447.996 288.057 448.35 288.578C448.715 289.089 449.157 289.469 449.678 289.719C450.199 289.969 450.788 290.094 451.444 290.094C452.11 290.094 452.704 289.969 453.225 289.719C453.746 289.469 454.178 289.089 454.522 288.578C454.876 288.057 455.142 287.391 455.319 286.578C455.496 285.755 455.584 284.776 455.584 283.641ZM475.231 270.25H479.028V286.047C479.028 287.786 478.7 289.188 478.044 290.25C477.398 291.312 476.523 292.089 475.419 292.578C474.325 293.068 473.106 293.312 471.762 293.312C470.367 293.312 469.122 293.068 468.028 292.578C466.934 292.089 466.075 291.312 465.45 290.25C464.825 289.188 464.512 287.786 464.512 286.047V270.25H468.294V286.047C468.294 287.13 468.429 287.969 468.7 288.562C468.981 289.156 469.377 289.568 469.887 289.797C470.408 290.026 471.033 290.141 471.762 290.141C472.492 290.141 473.111 290.026 473.622 289.797C474.143 289.568 474.539 289.156 474.809 288.562C475.091 287.969 475.231 287.13 475.231 286.047V270.25ZM499.972 270.25V293H496.253L488.222 277.25V293H484.55V270.25H488.222L496.316 286.109V270.25H499.972ZM511.447 293H507.494L507.525 289.828H511.447C512.666 289.828 513.64 289.604 514.369 289.156C515.098 288.698 515.624 288 515.947 287.062C516.27 286.125 516.431 284.927 516.431 283.469V279.766C516.431 278.641 516.337 277.682 516.15 276.891C515.973 276.089 515.692 275.438 515.306 274.938C514.931 274.427 514.436 274.052 513.822 273.812C513.207 273.562 512.468 273.438 511.603 273.438H507.416V270.25H511.603C512.905 270.25 514.082 270.458 515.134 270.875C516.186 271.292 517.087 271.906 517.837 272.719C518.598 273.521 519.181 274.516 519.587 275.703C519.994 276.891 520.197 278.255 520.197 279.797V283.469C520.197 285.01 519.994 286.375 519.587 287.562C519.181 288.74 518.598 289.734 517.837 290.547C517.077 291.349 516.16 291.958 515.087 292.375C514.015 292.792 512.801 293 511.447 293ZM509.666 270.25V293H505.869V270.25H509.666ZM533.022 269.719V266.734H538.678V298.109H533.022V295.141H535.053V269.719H533.022Z" fill="#FFC555"/>
</svg>
